Coordinates
version=1
nRows=8
nColumns=63
inDegrees=yes

Units are S.I. units (second, meters, Newtons, ...)
If the header above contains a line with 'inDegrees', this indicates whether rotational values are in degrees (yes) or radians (no).

endheader
time	pelvis_tilt	pelvis_list	pelvis_rotation	pelvis_tx	pelvis_ty	pelvis_tz	hip_flexion_r	hip_adduction_r	hip_rotation_r	knee_angle_r	knee_angle_r_beta	ankle_angle_r	subtalar_angle_r	mtp_angle_r	hip_flexion_l	hip_adduction_l	hip_rotation_l	knee_angle_l	knee_angle_l_beta	ankle_angle_l	subtalar_angle_l	mtp_angle_l	L5_S1_Flex_Ext	L5_S1_Lat_Bending	L5_S1_axial_rotation	L4_L5_Flex_Ext	L4_L5_Lat_Bending	L4_L5_axial_rotation	L3_L4_Flex_Ext	L3_L4_Lat_Bending	L3_L4_axial_rotation	L2_L3_Flex_Ext	L2_L3_Lat_Bending	L2_L3_axial_rotation	L1_L2_Flex_Ext	L1_L2_Lat_Bending	L1_L2_axial_rotation	L1_T12_Flex_Ext	L1_T12_Lat_Bending	L1_T12_axial_rotation	Abs_r3	Abs_r2	Abs_r1	Abs_t1	Abs_t2	neck_flexion	neck_bending	neck_rotation	arm_flex_r	arm_add_r	arm_rot_r	elbow_flex_r	pro_sup_r	wrist_flex_r	wrist_dev_r	arm_flex_l	arm_add_l	arm_rot_l	elbow_flex_l	pro_sup_l	wrist_flex_l	wrist_dev_l
      5.01694915	     -2.98952368	      0.49277795	     94.62674701	      0.27695579	      0.86887408	      0.69445685	     -4.60290851	     -0.82527047	    -16.73074976	      7.64613392	      0.13345021	     22.90162801	      6.33426500	      0.00000000	     -1.30112116	     -2.94654355	     12.39283131	     10.97522273	      0.19155377	     19.63460927	     -8.04455763	      0.00000000	     -0.07302362	     -0.16834997	      0.23173995	     -0.13561216	     -0.22390546	      0.24622369	     -0.11997050	     -0.40932612	      0.24622369	     -0.08345869	     -0.40932612	      0.20277245	     -0.06780973	     -0.34329926	      0.18828871	     -0.04172570	     -0.26077410	      0.17380496	     -0.52160040	     -1.90440853	      1.28886805	      0.00000000	      0.00000000	      0.30951951	      7.01607513	     -0.43864058	     17.61724228	     -3.50260515	      9.74340251	    139.56507695	     88.72509480	      1.74589945	     22.81938999	      5.92449150	    -11.74521661	     60.77277777	     35.35928547	     84.25005978	     -7.03153572	      6.08774495
      5.03389831	     -2.88519680	      0.54222566	     94.78992035	      0.27656019	      0.86855533	      0.69439306	     -4.65584970	     -0.75196517	    -17.46724491	      7.67272217	      0.13391426	     22.96098830	      7.08243299	      0.00000000	     -1.36574568	     -3.03957979	     13.03200424	     11.03070343	      0.19252209	     19.56373545	     -8.45161537	      0.00000000	     -0.06636892	     -0.15514662	      0.16549364	     -0.12325372	     -0.20634501	      0.17583700	     -0.10903750	     -0.37722350	      0.17583700	     -0.07585304	     -0.37722350	      0.14480694	     -0.06163018	     -0.31637499	      0.13446359	     -0.03792320	     -0.24032212	      0.12412023	     -0.47406656	     -1.75504963	      0.92042600	      0.00000000	      0.00000000	      0.23779517	      8.06750888	      4.02682796	     17.84525231	     -3.59962808	     10.06793748	    139.35103477	     88.55653730	      0.71786316	     22.91117845	      5.69387505	    -11.81346869	     60.51340015	     35.61026544	     83.75817689	     -7.35292256	      6.04155746
      5.05084746	     -2.75558674	      0.52390488	     94.64460688	      0.27660375	      0.86820704	      0.69438029	     -4.59025256	     -0.65436361	    -17.48871869	      7.70139693	      0.13441473	     22.98849976	      7.39259492	      0.00000000	     -1.38930035	     -3.17185364	     13.10855882	     11.04611189	      0.19279102	     19.69972521	     -8.48234789	      0.00000000	     -0.04314169	     -0.14420413	      0.21690488	     -0.08011843	     -0.19179150	      0.23046143	     -0.07087748	     -0.35061793	      0.23046143	     -0.04930663	     -0.35061793	      0.18979177	     -0.04006137	     -0.29406107	      0.17623521	     -0.02465116	     -0.22337220	      0.16267866	     -0.30815676	     -1.63126601	      1.20635985	      0.00000000	      0.00000000	      0.30526075	      9.01675071	      7.51737536	     17.83918318	     -3.73747218	      9.82273090	    139.23927518	     88.38424551	      0.49116881	     23.01214457	      5.83027370	    -11.75757212	     60.97593979	     35.56223298	     83.90553331	     -7.14054204	      6.29916688
      5.06779661	     -2.72716847	      0.57777675	     94.49306490	      0.27646872	      0.86795334	      0.69463504	     -4.58393675	     -0.67777962	    -17.48446777	      7.76227436	      0.13547725	     23.15286663	      7.84059104	      0.00000000	     -1.47162990	     -3.18305280	     13.00787363	     11.06130469	      0.19305619	     19.85019611	     -8.48288048	      0.00000000	     -0.02745077	     -0.13769898	      0.23347250	     -0.05097883	     -0.18313964	      0.24806453	     -0.04509887	     -0.33480130	      0.24806453	     -0.03137349	     -0.33480130	      0.20428844	     -0.02549079	     -0.28079576	      0.18969641	     -0.01568537	     -0.21329572	      0.17510437	     -0.19607811	     -1.55767841	      1.29850399	      0.00000000	      0.00000000	      0.03786237	      9.83940941	     11.03168224	     18.19333084	     -3.86450053	      9.84999672	    138.81138379	     88.29897979	      0.27872460	     23.25039317	      5.91784293	    -11.75850613	     61.34980495	     35.59306756	     83.86666834	     -7.04609539	      6.49186018
      5.08474576	     -2.69905124	      0.64601213	     94.34845055	      0.27625443	      0.86785475	      0.69501264	     -4.60103629	     -0.69660386	    -17.42441368	      7.78550296	      0.13588266	     23.29925640	      8.24982848	      0.00000000	     -1.53656617	     -3.18846273	     12.89640445	     11.12745695	      0.19421076	     20.02303564	     -8.44291906	      0.00000000	     -0.01250965	     -0.13536723	      0.26414857	     -0.02323168	     -0.18003841	      0.28065785	     -0.02055211	     -0.32913187	      0.28065785	     -0.01429728	     -0.32913187	      0.23113000	     -0.01161647	     -0.27604085	      0.21462071	     -0.00714802	     -0.20968383	      0.19811142	     -0.08935521	     -1.53130114	      1.46911508	      0.00000000	      0.00000000	     -0.37684590	     10.67841512	     13.32678240	     18.48427081	     -3.99904784	      9.76165506	    138.32890264	     88.26563261	      0.11143392	     23.49611816	      6.04200317	    -11.64784936	     61.68972309	     35.45658650	     83.81145351	     -6.96704953	      6.75282197
      5.10169492	     -2.70130957	      0.72744601	     94.14648479	      0.27608254	      0.86787996	      0.69565166	     -4.62365453	     -0.77111696	    -17.60856212	      7.81450051	      0.13638876	     23.50591697	      9.07769758	      0.00000000	     -1.62174439	     -3.17025593	     12.58367410	     11.15230096	      0.19464437	     20.11135701	     -8.19222207	      0.00000000	     -0.00432300	     -0.13620815	      0.31028140	     -0.00802825	     -0.18115684	      0.32967399	     -0.00710226	     -0.33117650	      0.32967399	     -0.00494076	     -0.33117650	      0.27149623	     -0.00401434	     -0.27775567	      0.25210364	     -0.00247016	     -0.21098643	      0.23271105	     -0.03087878	     -1.54081387	      1.72569207	      0.00000000	      0.00000000	     -1.05245175	     11.56723572	     14.76295274	     18.88989104	     -4.14624239	      9.74164470	    137.67982735	     88.30597672	     -0.31500747	     23.83871712	      6.31734203	    -11.62862958	     62.51549209	     35.44182414	     83.13439382	     -7.08453886	      7.01468576
      5.11864407	     -2.71908206	      0.77391274	     93.71038052	      0.27622170	      0.86799650	      0.69642699	     -4.56354275	     -0.78772156	    -16.19268982	      7.81297870	      0.13636220	     23.41355847	      7.92621628	      0.00000000	     -1.70815468	     -3.10719756	     12.25036698	     11.13856399	      0.19440462	     20.06188024	     -8.32123030	      0.00000000	     -0.00004839	     -0.14554806	      0.46150952	     -0.00008986	     -0.19357892	      0.49035386	     -0.00007950	     -0.35388555	      0.49035386	     -0.00005530	     -0.35388555	      0.40382083	     -0.00004493	     -0.29680160	      0.37497648	     -0.00002765	     -0.22545394	      0.34613214	     -0.00034563	     -1.64646876	      2.56677748	      0.00000000	      0.00000000	     -1.68855705	     12.60092897	     14.66129827	     19.08448353	     -4.36074078	      9.29762538	    137.09622411	     88.38781328	     -0.52649449	     23.79006589	      6.74964487	    -11.53415509	     63.40771171	     35.37376282	     83.07474901	     -7.09201312	      7.54361314
      5.13559322	     -2.72459597	      0.74458405	     93.77026887	      0.27567195	      0.86795406	      0.69735886	     -4.51103306	     -0.79929702	    -16.22554865	      7.74517286	      0.13517877	     23.43394250	      7.97412030	      0.00000000	     -1.61926124	     -3.07388760	     12.33930643	     11.14679544	      0.19454828	     20.06286995	     -8.23541905	      0.00000000	     -0.00276643	     -0.14661025	      0.50989136	     -0.00513753	     -0.19499163	      0.54175957	     -0.00454496	     -0.35646815	      0.54175957	     -0.00316175	     -0.35646815	      0.44615494	     -0.00256890	     -0.29896762	      0.41428673	     -0.00158074	     -0.22709927	      0.38241852	     -0.01976031	     -1.65848444	      2.83586280	      0.00000000	      0.00000000	     -1.96735352	     12.91026028	     14.42445976	     19.44901741	     -4.40893675	      8.99819182	    136.46178377	     88.46134064	     -0.63511757	     23.82668088	      6.86736988	    -11.44632026	     63.34172816	     35.41531402	     83.06875358	     -7.07953882	      7.49124943
